PathFileType	4	(X/Y/Z)	Trial.trc
DataRate	CameraRate	NumFrames	NumMarkers	Units	OrigDataRate	OrigDataStartFrame	OrigNumFrames
9	9	10	2	mm	9	1	10
Frame#	Time	Marker1			Marker2		
		X1	Y1	Z1	X2	Y2	Z2
1	0	0.737776321255047	1.6235488834436	-0.251483443250214	0.0191775922091463	-0.245896411679153	0.236696283286503
2	0.111111111111111	1.88850492923455	0.112038082869763	0.444797115792728	0.0295607543197664	-1.17756330894328	1.31829338403463
3	0.222222222222222	-0.0974451044082059	-0.133997013062555	2.75541757533686	0.549827541801689	-0.975850616159863	0.523909787501208
4	0.333333333333333	-0.935847353500678	-1.91008746772221	0.0465313804441933	-2.27411485689294	1.06505732002715	0.606748046557118
5	0.444444444444444	-0.0159503112505377	-0.279237241584845	0.577709069306631	2.68255718355635	0.131670634772894	-0.10993567214487
6	0.555555555555556	-0.826788953733443	-0.31344597825789	0.118194874409683	-0.361221255493715	0.488628809200981	0.172181715411
7	0.666666666666667	-1.5123996512628	1.06730787876151	-1.9117204910282	0.21335574971003	-1.69945056784569	-0.0903272870006624
8	0.777777777777778	0.935363189801085	0.0700348502966383	0.862086481838568	1.07434588225969	-1.47073630637743	1.92434334135779
9	0.888888888888889	0.176488610562459	-0.639123323885664	-0.243236739633475	-0.665088248545505	0.284150343626922	1.29839275883088
10	1	0.243685464746205	-0.0499648990481453	-0.206087194781581	1.11395241896922	1.33732041323558	0.748791267536843
